<svg version="1.1" id="Layer_1" xmlns="http://www.w3.org/2000/svg" xmlns:xlink="http://www.w3.org/1999/xlink" x="0px" y="0px" width="16px" height="16px" viewBox="0 0 16 16" enable-background="new 0 0 16 16" xml:space="preserve">
  <g id="main">
    <g id="icon">
      <path d="M0.3666,0.04727L0.1758,0.1758L0.04727,0.3666L0,0.6L0,3.4L0.04727,3.633L0.1758,3.824L0.3666,3.953L0.6,4L11.4,4L11.63,3.953L11.82,3.824L11.95,3.633L12,3.4L12,0.6L11.95,0.3666L11.82,0.1758L11.63,0.04727L11.4,0L0.6,0zz" fill="#cfcfcf"/>
      <path d="M8.513,6.018L8.683,6.001L8.943,6.026L9.189,6.101L9.416,6.222L9.617,6.388L11.47,8.238L13.32,6.388L13.52,6.222L13.75,6.101L13.99,6.026L14.25,6.001L14.51,6.026L14.68,6.077L14.63,6.047L14.4,6L8.6,6zz" fill="#cfcfcf"/>
      <path d="M14.7,11.47L15,11.77L15,11.6L14.95,11.37L14.89,11.28zM8.047,11.37L8,11.6L8,11.7L8.237,11.47L8.083,11.31zM11.17,15L11.77,15L11.47,14.7zz" fill="#cfcfcf"/>
      <path d="M3,14L3.5,14L4,14L6.05,14L6.097,13.75L6.218,13.52L6.387,13.32L6.705,13L4,13L4,9L6.042,9L6.025,8.944L6,8.684L6.025,8.424L6.1,8.178L6.195,8L4,8L4,4L3,4zz" fill="#cfcfcf"/>
      <path d="M1.5,9.5L5.5,9.5L5.5,6.5L1.5,6.5zz" fill="#FFFFFF"/>
      <path d="M1.183,6.113L1.01,6.402L1,6.5L1,9.5L1.113,9.817L1.402,9.99L1.5,10L5.5,10L5.817,9.887L5.99,9.598L6,9.5L6,8.684L6,6.5L5.887,6.183L5.598,6.01L5.5,6L1.5,6zM5,7L5,9L2,9L2,7zz" fill="#cfcfcf"/>
      <path d="M1.5,14.5L5.5,14.5L5.5,11.5L1.5,11.5zz" fill="#FFFFFF"/>
      <path d="M1.183,11.11L1.01,11.4L1,11.5L1,14.5L1.113,14.82L1.402,14.99L1.5,15L5.5,15L5.817,14.89L5.99,14.6L6,14.5L6,11.5L5.887,11.18L5.598,11.01L5.5,11L1.5,11zM5,12L5,14L2,14L2,12zz" fill="#cfcfcf"/>
    </g>
    <g id="overlay">
      <path d="M15.906,14.544l-1.362,1.362c-0.125,0.125,-0.329,0.125,-0.454,0l-2.622,-2.622l-2.557,2.557c-0.125,0.125,-0.329,0.125,-0.454,0l-1.362,-1.362c-0.125,-0.125,-0.125,-0.329,0,-0.454l2.557,-2.557L7.094,8.911c-0.125,-0.125,-0.125,-0.329,0,-0.454l1.362,-1.362c0.125,-0.125,0.329,-0.125,0.454,0l2.557,2.557l2.557,-2.557c0.125,-0.125,0.329,-0.125,0.454,0l1.362,1.362c0.125,0.125,0.125,0.329,0,0.454l-2.557,2.557l2.622,2.622C16.031,14.215,16.031,14.418,15.906,14.544z" fill-rule="evenodd" fill="#CD4C32"/>
    </g>
  </g>
</svg>