<svg version="1.1" id="Layer_1" xmlns="http://www.w3.org/2000/svg" xmlns:xlink="http://www.w3.org/1999/xlink" x="0px" y="0px" width="16px" height="16px" viewBox="0 0 16 16" enable-background="new 0 0 16 16" xml:space="preserve">
  <g id="main">
    <g id="icon">
      <path d="M0.3715,0.04785L0.1781,0.1781L0.04785,0.3715L0,0.6082L0,2.392L0.04785,2.629L0.1781,2.822L0.3715,2.952L0.6082,3L13.39,3L13.63,2.952L13.82,2.822L13.95,2.628L14,2.392L14,0.6082L13.95,0.3715L13.82,0.1781L13.63,0.04785L13.39,0L0.6082,0zz" fill="#797979"/>
      <path d="M0.3715,5.548L0.1781,5.678L0.04785,5.871L0,6.108L0,7.892L0.04785,8.129L0.1781,8.322L0.3715,8.452L0.6082,8.5L9,8.5L9,7.3L9.026,7.038L9.102,6.794L9.381,6.381L9.794,6.102L10.04,6.026L10.3,6L12.7,6L12.96,6.026L13.21,6.102L13.62,6.381L13.9,6.794L13.97,7.038L14,7.298L14,6.108L13.95,5.871L13.82,5.678L13.63,5.548L13.39,5.5L0.6082,5.5zz" fill="#797979"/>
      <path d="M0.3715,11.05L0.1781,11.18L0.04785,11.37L0,11.61L0,13.39L0.04785,13.63L0.1781,13.82L0.3715,13.95L0.6082,14L7.3,14L7.038,13.97L6.794,13.9L6.381,13.62L6.102,13.21L6.026,12.96L6,12.7L6,11L0.6082,11zz" fill="#797979"/>
    </g>
    <g id="overlay">
      <path d="M15.7,10h-2.7V7.3c0,-0.166,-0.134,-0.3,-0.3,-0.3h-2.4c-0.166,0,-0.3,0.134,-0.3,0.3v2.7H7.3c-0.166,0,-0.3,0.134,-0.3,0.3v2.4c0,0.166,0.134,0.3,0.3,0.3h2.7v2.7c0,0.166,0.134,0.3,0.3,0.3h2.4c0.166,0,0.3,-0.134,0.3,-0.3v-2.7h2.7c0.166,0,0.3,-0.134,0.3,-0.3v-2.4C16,10.134,15.866,10,15.7,10z" fill="#4EA17E"/>
    </g>
  </g>
</svg>