<svg version="1.1" id="Layer_1" xmlns="http://www.w3.org/2000/svg" xmlns:xlink="http://www.w3.org/1999/xlink" x="0px" y="0px" width="32px" height="32px" viewBox="0 0 32 32" enable-background="new 0 0 32 32" xml:space="preserve">
  <g id="main">
    <g id="icon">
      <path d="M1.6,3.077L1.288,3.288L1.077,3.6L1,3.983L1,8.017L1.077,8.4L1.288,8.712L1.6,8.923L1.983,9L21.02,9L21.4,8.923L21.71,8.712L21.92,8.399L22,8.016L22,3.983L21.92,3.6L21.71,3.288L21.4,3.077L21.02,3L1.983,3zz" fill="#cfcfcf"/>
      <path d="M13.6,13.08L13.29,13.29L13.08,13.6L13,13.98L13,17.02L13.08,17.4L13.29,17.71L13.6,17.92L13.98,18L22.09,18L22.12,17.92L22.26,17.66L22.44,17.44L22.66,17.26L22.92,17.12L23.2,17.03L23.5,17L26.5,17L26.8,17.03L27.08,17.12L27.34,17.26L27.56,17.44L27.74,17.66L27.88,17.92L27.91,18L28.02,18L28.4,17.92L28.71,17.71L28.92,17.4L29,17.02L29,13.98L28.92,13.6L28.71,13.29L28.4,13.08L28.02,13L13.98,13zz" fill="#cfcfcf"/>
      <path d="M13.6,22.08L13.29,22.29L13.08,22.6L13,22.98L13,26.02L13.08,26.4L13.29,26.71L13.6,26.92L13.98,27L17.09,27L17.03,26.8L17,26.5L17,23.5L17.03,23.2L17.12,22.92L17.26,22.66L17.44,22.44L17.66,22.26L17.92,22.12L18.2,22.03L18.49,22L13.98,22zz" fill="#cfcfcf"/>
      <path d="M5,25L5.5,25L6,25L13,25L13,24L6,24L6,16L13,16L13,15L6,15L6,9L5,9zz" fill="#cfcfcf"/>
      <path d="M3.5,17.5L7.5,17.5L7.5,13.5L3.5,13.5zz" fill="#FFFFFF"/>
      <path d="M3.183,13.11L3.01,13.4L3,13.5L3,17.5L3.113,17.82L3.402,17.99L3.5,18L7.5,18L7.817,17.89L7.99,17.6L8,17.5L8,13.5L7.887,13.18L7.598,13.01L7.5,13L3.5,13zM7,14L7,17L4,17L4,14zz" fill="#cfcfcf"/>
      <path d="M3.5,26.5L7.5,26.5L7.5,22.5L3.5,22.5zz" fill="#FFFFFF"/>
      <path d="M3.183,22.11L3.01,22.4L3,22.5L3,26.5L3.113,26.82L3.402,26.99L3.5,27L7.5,27L7.817,26.89L7.99,26.6L8,26.5L8,22.5L7.887,22.18L7.598,22.01L7.5,22L3.5,22zM7,23L7,26L4,26L4,23zz" fill="#cfcfcf"/>
    </g>
    <g id="overlay">
      <path d="M31.5,23h-4.5v-4.5c0,-0.276,-0.224,-0.5,-0.5,-0.5h-3c-0.276,0,-0.5,0.224,-0.5,0.5v4.5h-4.5c-0.276,0,-0.5,0.224,-0.5,0.5v3c0,0.276,0.224,0.5,0.5,0.5h4.5v4.5c0,0.276,0.224,0.5,0.5,0.5h3c0.276,0,0.5,-0.224,0.5,-0.5v-4.5h4.5c0.276,0,0.5,-0.224,0.5,-0.5v-3C32,23.224,31.776,23,31.5,23z" fill-rule="evenodd" fill="#4EA17E"/>
    </g>
  </g>
</svg>