<svg version="1.1" id="Layer_1" xmlns="http://www.w3.org/2000/svg" xmlns:xlink="http://www.w3.org/1999/xlink" x="0px" y="0px" width="32px" height="32px" viewBox="0 0 32 32" enable-background="new 0 0 32 32" xml:space="preserve">
  <g id="main">
    <g id="icon">
      <path d="M4.336,4.043L4.161,4.161L4.043,4.336L4,4.55L4,7.45L4.043,7.664L4.161,7.839L4.336,7.957L4.55,8L25.45,8L25.66,7.957L25.84,7.839L25.96,7.664L26,7.45L26,4.55L25.96,4.336L25.84,4.161L25.66,4.043L25.45,4L4.55,4zM4.336,13.04L4.161,13.16L4.043,13.34L4,13.55L4,16.45L4.043,16.66L4.161,16.84L4.336,16.96L4.55,17L25.45,17L25.66,16.96L25.84,16.84L25.96,16.66L26,16.45L26,13.55L25.96,13.34L25.84,13.16L25.66,13.04L25.45,13L4.55,13zM4.336,22.04L4.161,22.16L4.043,22.34L4,22.55L4,25.45L4.043,25.66L4.161,25.84L4.336,25.96L4.55,26L19.76,26L20.76,25L17.76,22L4.55,22zz" fill="#cfcfcf"/>
    </g>
    <g id="overlay">
      <path d="M31.91,29.789l-2.121,2.121c-0.195,0.195,-0.512,0.195,-0.707,0L25,27.828l-3.982,3.982c-0.195,0.195,-0.512,0.195,-0.707,0l-2.121,-2.121c-0.195,-0.195,-0.195,-0.512,0,-0.707L22.172,25l-3.982,-3.982c-0.195,-0.195,-0.195,-0.512,0,-0.707l2.121,-2.121c0.195,-0.195,0.512,-0.195,0.707,0L25,22.172l3.982,-3.982c0.195,-0.195,0.512,-0.195,0.707,0l2.121,2.121c0.195,0.195,0.195,0.512,0,0.707L27.828,25l4.082,4.082C32.106,29.277,32.106,29.594,31.91,29.789z" fill-rule="evenodd" fill="#CD4C32"/>
    </g>
  </g>
</svg>