<svg version="1.1" id="Layer_1" xmlns="http://www.w3.org/2000/svg" xmlns:xlink="http://www.w3.org/1999/xlink" x="0px" y="0px" width="16px" height="16px" viewBox="0 0 16 16" enable-background="new 0 0 16 16" xml:space="preserve">
  <g id="main">
    <g id="icon">
      <path d="M0.6615,1.085L0.3172,1.317L0.08516,1.662L0,2.083L0,5.917L0.08516,6.338L0.3172,6.683L0.6615,6.915L1.083,7L8.917,7L9.338,6.915L9.683,6.683L9.915,6.339L10,5.918L10,2.083L9.915,1.662L9.683,1.317L9.339,1.085L8.918,1L1.083,1zz" fill="#cccccc"/>
      <path d="M5.662,8.085L5.317,8.317L5.085,8.662L5,9.083L5,12.92L5.085,13.34L5.317,13.68L5.662,13.91L6.083,14L10.12,14L9.685,13.91L9.33,13.67L9.09,13.32L9.001,12.89L9,10.95L9.088,10.48L9.343,10.08L9.359,10.07L9.376,10.05L11.48,8L6.083,8zM10.9,13.68L10.54,13.92L10.12,14L11,14L11,13.58zz" fill="#cccccc"/>
    </g>
    <g id="overlay">
      <path d="M10.0699,10.7712c-0.0451,0.0478,-0.0701,0.111,-0.0699,0.1767l0.0006,1.9354c0.0003,0.1039,0.1259,0.1557,0.1994,0.0823l1.8,-1.7219v4.4913c0,0.1416,0.0833,0.265,0.2249,0.265h0.5601h0.502h0.4391c0.1416,0,0.2563,-0.1148,0.2563,-0.2563v-4.4913l1.8185,1.7304c0.0737,0.0732,0.1991,0.0209,0.1991,-0.0829v-1.9222c0,-0.0662,-0.0256,-0.1299,-0.0715,-0.1776c0,0,-2.0193,-1.9735,-2.7965,-2.7414c-0.0795,-0.0786,-0.204,-0.078,-0.2828,0.0013C12.0873,8.8265,10.0699,10.7712,10.0699,10.7712z" fill-rule="evenodd" fill="#3E79B4"/>
    </g>
  </g>
</svg>