<svg version="1.1" id="Layer_1" xmlns="http://www.w3.org/2000/svg" xmlns:xlink="http://www.w3.org/1999/xlink" x="0px" y="0px" width="16px" height="16px" viewBox="0 0 16 16" enable-background="new 0 0 16 16" xml:space="preserve">
  <g id="main">
    <g id="icon">
      <path d="M0.3666,0.04727L0.1758,0.1758L0.04727,0.3666L0,0.6L0,3.4L0.04727,3.633L0.1758,3.824L0.3666,3.953L0.6,4L11.4,4L11.63,3.953L11.82,3.824L11.95,3.633L12,3.4L12,0.6L11.95,0.3666L11.82,0.1758L11.63,0.04727L11.4,0L0.6,0zz" fill="#cfcfcf"/>
      <path d="M8.367,6.047L8.176,6.176L8.047,6.367L8,6.6L8,9L9,9L9,7.3L9.026,7.038L9.102,6.794L9.381,6.381L9.794,6.102L10.04,6.026L10.3,6L8.6,6zM12.96,6.026L13.21,6.102L13.62,6.381L13.9,6.794L13.97,7.038L14,7.3L14,9L15,9L15,6.6L14.95,6.367L14.82,6.176L14.63,6.047L14.4,6L12.7,6zz" fill="#cfcfcf"/>
      <path d="M8,14.4L8.047,14.63L8.176,14.82L8.367,14.95L8.6,15L9,15L9,14L8,14zM14,15L14.4,15L14.63,14.95L14.82,14.82L14.95,14.63L15,14.4L15,14L14,14zz" fill="#cfcfcf"/>
      <path d="M3,14L3.5,14L4,14L7.3,14L7.038,13.97L6.794,13.9L6.381,13.62L6.102,13.21L6.038,13L4,13L4,9L7.3,9L8,9L8,8L4,8L4,4L3,4zz" fill="#cfcfcf"/>
      <path d="M1.5,9.5L5.5,9.5L5.5,6.5L1.5,6.5zz" fill="#FFFFFF"/>
      <path d="M1.183,6.113L1.01,6.402L1,6.5L1,9.5L1.113,9.817L1.402,9.99L1.5,10L5.5,10L5.817,9.887L5.99,9.598L6,9.5L6,6.5L5.887,6.183L5.598,6.01L5.5,6L1.5,6zM5,7L5,9L2,9L2,7zz" fill="#cfcfcf"/>
      <path d="M1.5,14.5L5.5,14.5L5.5,11.5L1.5,11.5zz" fill="#FFFFFF"/>
      <path d="M1.183,11.11L1.01,11.4L1,11.5L1,14.5L1.113,14.82L1.402,14.99L1.5,15L5.5,15L5.817,14.89L5.99,14.6L6,14.5L6,12.7L6,11.5L5.887,11.18L5.598,11.01L5.5,11L1.5,11zM5,12L5,14L2,14L2,12zz" fill="#cfcfcf"/>
    </g>
    <g id="overlay">
      <path d="M15.7,10h-2.7V7.3c0,-0.166,-0.134,-0.3,-0.3,-0.3h-2.4c-0.166,0,-0.3,0.134,-0.3,0.3v2.7H7.3c-0.166,0,-0.3,0.134,-0.3,0.3v2.4c0,0.166,0.134,0.3,0.3,0.3h2.7v2.7c0,0.166,0.134,0.3,0.3,0.3h2.4c0.166,0,0.3,-0.134,0.3,-0.3v-2.7h2.7c0.166,0,0.3,-0.134,0.3,-0.3v-2.4C16,10.134,15.866,10,15.7,10z" fill="#4EA17E"/>
    </g>
  </g>
</svg>