<svg version="1.1" id="Layer_1" xmlns="http://www.w3.org/2000/svg" xmlns:xlink="http://www.w3.org/1999/xlink" x="0px" y="0px" width="16px" height="16px" viewBox="0 0 16 16" enable-background="new 0 0 16 16" xml:space="preserve">
  <g id="main">
    <g id="icon">
      <path d="M0.6615,1.085L0.3172,1.317L0.08516,1.662L0,2.083L0,5.917L0.08516,6.338L0.3172,6.683L0.6615,6.915L1.083,7L8.917,7L9.338,6.915L9.683,6.683L9.915,6.339L10,5.918L10,2.083L9.915,1.662L9.683,1.317L9.339,1.085L8.918,1L1.083,1zz" fill="#cccccc"/>
      <path d="M5.662,8.085L5.317,8.317L5.085,8.662L5,9.083L5,12.92L5.085,13.34L5.317,13.68L5.662,13.91L6.083,14L9.459,14L9.373,13.92L9.351,13.89L9.091,13.49L9,13.02L9,11.1L9.088,10.67L9.328,10.31L9.683,10.07L10.12,9.983L10.53,10.06L10.88,10.3L11,10.42L11,8.256L11.03,8.004L11.03,8L6.083,8zM15,10.42L15,10.41L15,9.083L15,9.078zz" fill="#cccccc"/>
    </g>
    <g id="overlay">
      <path d="M15.9301,13.2288c0.0451,-0.0478,0.0701,-0.111,0.0699,-0.1767l-0.0006,-1.9354c-0.0003,-0.1039,-0.1259,-0.1557,-0.1994,-0.0823l-1.8,1.7219V8.265c0,-0.1416,-0.0833,-0.265,-0.2249,-0.265h-0.5601h-0.502h-0.4391c-0.1416,0,-0.2563,0.1148,-0.2563,0.2563v4.4912l-1.8185,-1.7304c-0.0737,-0.0732,-0.1991,-0.0209,-0.1991,0.0829v1.9222c0,0.0662,0.0256,0.1299,0.0715,0.1776c0,0,2.0193,1.9735,2.7965,2.7414c0.0795,0.0786,0.204,0.078,0.2828,-0.0013C13.9127,15.1735,15.9301,13.2288,15.9301,13.2288z" fill-rule="evenodd" fill="#3E79B4"/>
    </g>
  </g>
</svg>